<?xml version="1.0" encoding="UTF-8" standalone="yes"?>
<svg xmlns="http://www.w3.org/2000/svg" xmlns:xlink="http://www.w3.org/1999/xlink" width="64px" height="64px" viewBox="0 0 64 64" version="1.1" fill="#000000">
  <g id="surface108483">
    <path style=" stroke:none;fill-rule:nonzero;fill:#000000;fill-opacity:1;" d="M 38 6 C 26.976562 6 18 14.976562 18 26 C 18 30.789062 19.679688 35.179688 22.5 38.625 L 6.5625 54.5625 L 9.4375 57.4375 L 25.375 41.5 C 28.820312 44.320312 33.210938 46 38 46 C 49.023438 46 58 37.023438 58 26 C 58 14.976562 49.023438 6 38 6 Z M 38 10 C 46.859375 10 54 17.140625 54 26 C 54 34.859375 46.859375 42 38 42 C 29.140625 42 22 34.859375 22 26 C 22 17.140625 29.140625 10 38 10 Z M 38 10 "/>
  </g>
</svg>
